<svg width="282" height="192" viewBox="0 0 282 192" fill="none" xmlns="http://www.w3.org/2000/svg">
<path d="M71.3089 23.8601C72.7906 23.8601 73.9918 22.6576 73.9918 21.1741C73.9918 19.6907 72.7906 18.4882 71.3089 18.4882C69.8272 18.4882 68.626 19.6907 68.626 21.1741C68.626 22.6576 69.8272 23.8601 71.3089 23.8601Z" fill="#F2F2F2"/>
<path d="M60.6165 23.8601C62.0982 23.8601 63.2994 22.6576 63.2994 21.1741C63.2994 19.6907 62.0982 18.4882 60.6165 18.4882C59.1348 18.4882 57.9336 19.6907 57.9336 21.1741C57.9336 22.6576 59.1348 23.8601 60.6165 23.8601Z" fill="#F2F2F2"/>
<path d="M49.9241 23.8601C51.4058 23.8601 52.607 22.6576 52.607 21.1741C52.607 19.6907 51.4058 18.4882 49.9241 18.4882C48.4424 18.4882 47.2412 19.6907 47.2412 21.1741C47.2412 22.6576 48.4424 23.8601 49.9241 23.8601Z" fill="#F2F2F2"/>
<path d="M39.2317 23.8601C40.7134 23.8601 41.9146 22.6576 41.9146 21.1741C41.9146 19.6907 40.7134 18.4882 39.2317 18.4882C37.75 18.4882 36.5488 19.6907 36.5488 21.1741C36.5488 22.6576 37.75 23.8601 39.2317 23.8601Z" fill="#F2F2F2"/>
<path d="M71.3089 35.0743C72.7906 35.0743 73.9918 33.8717 73.9918 32.3883C73.9918 30.9049 72.7906 29.7024 71.3089 29.7024C69.8272 29.7024 68.626 30.9049 68.626 32.3883C68.626 33.8717 69.8272 35.0743 71.3089 35.0743Z" fill="#F2F2F2"/>
<path d="M60.6165 35.0743C62.0982 35.0743 63.2994 33.8717 63.2994 32.3883C63.2994 30.9049 62.0982 29.7024 60.6165 29.7024C59.1348 29.7024 57.9336 30.9049 57.9336 32.3883C57.9336 33.8717 59.1348 35.0743 60.6165 35.0743Z" fill="#F2F2F2"/>
<path d="M49.9241 35.0743C51.4058 35.0743 52.607 33.8717 52.607 32.3883C52.607 30.9049 51.4058 29.7024 49.9241 29.7024C48.4424 29.7024 47.2412 30.9049 47.2412 32.3883C47.2412 33.8717 48.4424 35.0743 49.9241 35.0743Z" fill="#F2F2F2"/>
<path d="M39.2317 35.0743C40.7134 35.0743 41.9146 33.8717 41.9146 32.3883C41.9146 30.9049 40.7134 29.7024 39.2317 29.7024C37.75 29.7024 36.5488 30.9049 36.5488 32.3883C36.5488 33.8717 37.75 35.0743 39.2317 35.0743Z" fill="#F2F2F2"/>
<path d="M71.3089 46.2885C72.7906 46.2885 73.9918 45.0859 73.9918 43.6025C73.9918 42.1191 72.7906 40.9166 71.3089 40.9166C69.8272 40.9166 68.626 42.1191 68.626 43.6025C68.626 45.0859 69.8272 46.2885 71.3089 46.2885Z" fill="#F2F2F2"/>
<path d="M60.6165 46.2885C62.0982 46.2885 63.2994 45.0859 63.2994 43.6025C63.2994 42.1191 62.0982 40.9166 60.6165 40.9166C59.1348 40.9166 57.9336 42.1191 57.9336 43.6025C57.9336 45.0859 59.1348 46.2885 60.6165 46.2885Z" fill="#F2F2F2"/>
<path d="M49.9241 46.2885C51.4058 46.2885 52.607 45.0859 52.607 43.6025C52.607 42.1191 51.4058 40.9166 49.9241 40.9166C48.4424 40.9166 47.2412 42.1191 47.2412 43.6025C47.2412 45.0859 48.4424 46.2885 49.9241 46.2885Z" fill="#F2F2F2"/>
<path d="M39.2317 46.2885C40.7134 46.2885 41.9146 45.0859 41.9146 43.6025C41.9146 42.1191 40.7134 40.9166 39.2317 40.9166C37.75 40.9166 36.5488 42.1191 36.5488 43.6025C36.5488 45.0859 37.75 46.2885 39.2317 46.2885Z" fill="#F2F2F2"/>
<path d="M71.3089 57.5026C72.7906 57.5026 73.9918 56.3001 73.9918 54.8167C73.9918 53.3333 72.7906 52.1307 71.3089 52.1307C69.8272 52.1307 68.626 53.3333 68.626 54.8167C68.626 56.3001 69.8272 57.5026 71.3089 57.5026Z" fill="#F2F2F2"/>
<path d="M60.6165 57.5026C62.0982 57.5026 63.2994 56.3001 63.2994 54.8167C63.2994 53.3333 62.0982 52.1307 60.6165 52.1307C59.1348 52.1307 57.9336 53.3333 57.9336 54.8167C57.9336 56.3001 59.1348 57.5026 60.6165 57.5026Z" fill="#F2F2F2"/>
<path d="M49.9241 57.5026C51.4058 57.5026 52.607 56.3001 52.607 54.8167C52.607 53.3333 51.4058 52.1307 49.9241 52.1307C48.4424 52.1307 47.2412 53.3333 47.2412 54.8167C47.2412 56.3001 48.4424 57.5026 49.9241 57.5026Z" fill="#F2F2F2"/>
<path d="M39.2317 57.5026C40.7134 57.5026 41.9146 56.3001 41.9146 54.8167C41.9146 53.3333 40.7134 52.1307 39.2317 52.1307C37.75 52.1307 36.5488 53.3333 36.5488 54.8167C36.5488 56.3001 37.75 57.5026 39.2317 57.5026Z" fill="#F2F2F2"/>
<path d="M71.3089 68.7168C72.7906 68.7168 73.9918 67.5143 73.9918 66.0309C73.9918 64.5475 72.7906 63.3449 71.3089 63.3449C69.8272 63.3449 68.626 64.5475 68.626 66.0309C68.626 67.5143 69.8272 68.7168 71.3089 68.7168Z" fill="#F2F2F2"/>
<path d="M60.6165 68.7168C62.0982 68.7168 63.2994 67.5143 63.2994 66.0309C63.2994 64.5475 62.0982 63.3449 60.6165 63.3449C59.1348 63.3449 57.9336 64.5475 57.9336 66.0309C57.9336 67.5143 59.1348 68.7168 60.6165 68.7168Z" fill="#F2F2F2"/>
<path d="M49.9241 68.7168C51.4058 68.7168 52.607 67.5143 52.607 66.0309C52.607 64.5475 51.4058 63.3449 49.9241 63.3449C48.4424 63.3449 47.2412 64.5475 47.2412 66.0309C47.2412 67.5143 48.4424 68.7168 49.9241 68.7168Z" fill="#F2F2F2"/>
<path d="M39.2317 68.7168C40.7134 68.7168 41.9146 67.5143 41.9146 66.0309C41.9146 64.5475 40.7134 63.3449 39.2317 63.3449C37.75 63.3449 36.5488 64.5475 36.5488 66.0309C36.5488 67.5143 37.75 68.7168 39.2317 68.7168Z" fill="#F2F2F2"/>
<path d="M71.3089 79.931C72.7906 79.931 73.9918 78.7285 73.9918 77.245C73.9918 75.7616 72.7906 74.5591 71.3089 74.5591C69.8272 74.5591 68.626 75.7616 68.626 77.245C68.626 78.7285 69.8272 79.931 71.3089 79.931Z" fill="#F2F2F2"/>
<path d="M60.6165 79.931C62.0982 79.931 63.2994 78.7285 63.2994 77.245C63.2994 75.7616 62.0982 74.5591 60.6165 74.5591C59.1348 74.5591 57.9336 75.7616 57.9336 77.245C57.9336 78.7285 59.1348 79.931 60.6165 79.931Z" fill="#F2F2F2"/>
<path d="M49.9241 79.931C51.4058 79.931 52.607 78.7285 52.607 77.245C52.607 75.7616 51.4058 74.5591 49.9241 74.5591C48.4424 74.5591 47.2412 75.7616 47.2412 77.245C47.2412 78.7285 48.4424 79.931 49.9241 79.931Z" fill="#F2F2F2"/>
<path d="M39.2317 79.931C40.7134 79.931 41.9146 78.7285 41.9146 77.245C41.9146 75.7616 40.7134 74.5591 39.2317 74.5591C37.75 74.5591 36.5488 75.7616 36.5488 77.245C36.5488 78.7285 37.75 79.931 39.2317 79.931Z" fill="#F2F2F2"/>
<path d="M47.7341 150.519V151.35C47.7353 152.726 48.2821 154.046 49.2544 155.02C50.2266 155.993 51.545 156.54 52.92 156.542H90.2579C91.6331 156.541 92.9518 155.994 93.9243 155.02C94.8967 154.047 95.4432 152.727 95.4437 151.35V150.519C95.4463 149.304 95.0201 148.127 94.2404 147.196C93.981 146.887 93.6873 146.609 93.3651 146.366C93.3651 146.366 72.8376 145.901 72.8376 145.327H52.92C51.5452 145.329 50.2272 145.877 49.2551 146.85C48.283 147.823 47.736 149.143 47.7341 150.519Z" fill="#CCCCCC"/>
<path d="M74.5859 156.335H69.1926V191.224H74.5859V156.335Z" fill="#CCCCCC"/>
<path d="M89.9359 191.034C89.9359 191.618 81.7633 191.26 71.6818 191.26C61.6004 191.26 53.4277 191.618 53.4277 191.034C53.4277 190.451 61.6004 185.825 71.6818 185.825C81.7633 185.825 89.9359 190.451 89.9359 191.034Z" fill="#CCCCCC"/>
<path d="M82.5208 149.815C82.9101 149.292 83.1802 148.689 83.312 148.051C83.4437 147.412 83.4339 146.752 83.2834 146.117C83.1328 145.483 82.845 144.889 82.4404 144.377C82.0358 143.866 81.5241 143.45 80.9414 143.158L69.5106 104.164L60.8064 108.432L74.7794 145.42C74.3546 146.432 74.3154 147.566 74.6695 148.605C75.0235 149.645 75.7461 150.518 76.7003 151.06C77.6545 151.601 78.7741 151.774 79.8469 151.544C80.9196 151.315 81.871 150.699 82.5208 149.815L82.5208 149.815Z" fill="#A0616A"/>
<path d="M72.1003 110.676L62.3581 113.316C62.0809 113.391 61.7908 113.406 61.5076 113.358C61.2243 113.311 60.9545 113.203 60.7166 113.042C60.4788 112.881 60.2783 112.671 60.129 112.425C59.9797 112.18 59.885 111.905 59.8514 111.619L58.6739 101.615C58.2981 100.193 58.5008 98.6796 59.2377 97.4071C59.9745 96.1346 61.1853 95.2065 62.6046 94.8263C64.0239 94.4461 65.5359 94.6448 66.809 95.379C68.0822 96.1131 69.0126 97.3227 69.3963 98.7426L73.4097 107.945C73.5245 108.208 73.5813 108.493 73.5761 108.781C73.5709 109.068 73.5039 109.351 73.3796 109.611C73.2554 109.87 73.0768 110.099 72.856 110.283C72.6352 110.467 72.3775 110.601 72.1003 110.676H72.1003Z" fill="#FF5300"/>
<path d="M85.0672 186.945L90.1535 186.945L92.5734 173.738H85.0664L85.0672 186.945Z" fill="#A0616A"/>
<path d="M83.7695 185.283L93.786 185.282H93.7864C94.6247 185.282 95.4547 185.447 96.2292 185.769C97.0037 186.09 97.7074 186.56 98.3001 187.154C98.8929 187.747 99.3631 188.452 99.6838 189.227C100.005 190.002 100.17 190.833 100.17 191.673V191.88L83.7698 191.881L83.7695 185.283Z" fill="#2F2E41"/>
<path d="M90.9708 179.863C90.9116 179.863 90.8521 179.86 90.7923 179.855L83.7535 179.342C83.4688 179.315 83.1941 179.224 82.9503 179.074C82.7066 178.924 82.5004 178.721 82.3477 178.479C82.195 178.237 82.0999 177.963 82.0696 177.678C82.0393 177.394 82.0748 177.106 82.1731 176.837L91.5933 155.649C91.6606 155.46 91.6881 155.259 91.6741 155.059C91.6601 154.859 91.6049 154.664 91.5119 154.486C91.4192 154.307 91.2895 154.149 91.1314 154.023C90.9733 153.897 90.7903 153.806 90.5945 153.756C86.1649 152.596 74.7998 149.51 64.9615 145.898C60.7465 144.351 58.0918 142.115 57.0712 139.252C55.7258 135.478 57.7162 132.036 57.8016 131.891L57.8683 131.778L67.126 132.621L77.162 133.475L99.1555 145.282C100.998 146.28 102.398 147.936 103.076 149.921C103.754 151.906 103.661 154.073 102.814 155.992L92.6743 178.755C92.5276 179.085 92.2887 179.365 91.9864 179.562C91.684 179.758 91.3313 179.863 90.9708 179.863Z" fill="#2F2E41"/>
<path d="M68.7357 90.7007C74.3632 90.7007 78.9252 86.1335 78.9252 80.4995C78.9252 74.8656 74.3632 70.2983 68.7357 70.2983C63.1082 70.2983 58.5461 74.8656 58.5461 80.4995C58.5461 86.1335 63.1082 90.7007 68.7357 90.7007Z" fill="#A0616A"/>
<path d="M82.1629 186.53L87.2492 186.529L89.6691 173.323H82.1621L82.1629 186.53Z" fill="#A0616A"/>
<path d="M80.8655 184.867L90.8819 184.867H90.8823C91.7206 184.867 92.5507 185.032 93.3251 185.353C94.0996 185.674 94.8033 186.145 95.396 186.738C95.9888 187.332 96.459 188.036 96.7798 188.812C97.1006 189.587 97.2657 190.418 97.2657 191.257V191.465L80.8658 191.466L80.8655 184.867Z" fill="#2F2E41"/>
<path d="M88.0668 181.109C88.0075 181.109 87.948 181.106 87.8883 181.101L80.8495 180.588C80.5648 180.561 80.29 180.47 80.0463 180.32C79.8025 180.17 79.5964 179.967 79.4437 179.725C79.291 179.483 79.1958 179.209 79.1656 178.924C79.1353 178.64 79.1707 178.352 79.2691 178.083L88.6893 156.895C88.7566 156.706 88.7841 156.505 88.7701 156.305C88.7561 156.105 88.7008 155.91 88.6078 155.732C88.5151 155.553 88.3854 155.395 88.2273 155.269C88.0692 155.143 87.8863 155.052 87.6905 155.002C83.2609 153.842 71.8957 150.756 62.0574 147.144C57.8424 145.597 55.1877 143.361 54.1672 140.498C52.8217 136.724 54.8122 133.282 54.8975 133.137L54.9643 133.024L64.2219 133.867L74.258 134.721L96.2515 146.528C98.0943 147.526 99.4942 149.182 100.172 151.167C100.85 153.152 100.757 155.319 99.91 157.238L89.7703 180.001C89.6236 180.331 89.3846 180.611 89.0823 180.808C88.78 181.004 88.4273 181.109 88.0668 181.109Z" fill="#2F2E41"/>
<path d="M71.8782 96.4852L61.0917 92.7472C61.0917 92.7472 54.3203 97.9555 57.5732 110.876C59.2715 117.544 58.7768 124.582 56.1627 130.945C55.8479 131.733 55.4851 132.5 55.0762 133.243C55.0762 133.243 67.1073 147.78 78.3087 136.981L73.9526 116.006C73.9526 116.006 80.7978 102.092 71.8782 96.4852Z" fill="#2F2E41"/>
<path d="M70.0007 91.0476C68.5505 88.8745 67.406 85.8611 69.0027 83.7934C70.5788 81.7523 73.6875 82.053 76.1013 81.1498C79.4634 79.8919 81.4133 75.9376 80.8052 72.3963C80.197 68.8549 77.3575 65.9193 73.9748 64.7181C70.5921 63.517 66.7776 63.9076 63.465 65.2908C59.3871 66.9936 55.889 70.2875 54.4222 74.46C52.9553 78.6325 53.7395 83.6424 56.7825 86.8494C60.0449 90.2877 65.1651 91.2041 69.9017 91.1485" fill="#2F2E41"/>
<path d="M60.5222 72.5099C58.6948 73.9993 55.9068 73.3378 53.9451 72.0307C51.9835 70.7236 50.3918 68.8624 48.2694 67.8375C44.5276 66.0308 40.0037 67.2319 36.362 69.2331C32.7203 71.2344 29.4922 73.9992 25.6455 75.5696C21.7988 77.1401 16.8902 77.2177 13.9775 74.2523C13.2607 76.3315 13.2021 78.5814 13.8097 80.6951C14.4173 82.8087 15.6615 84.6833 17.3725 86.0629C19.0835 87.4425 21.1781 88.2601 23.3703 88.4039C25.5626 88.5478 27.7458 88.011 29.6221 86.8668C33.8369 84.2965 36.165 78.9074 40.8923 77.4887C43.5083 76.7037 46.3172 77.336 48.9611 78.0208C51.605 78.7056 54.3618 79.4456 57.0299 78.8626C59.698 78.2796 62.1937 75.8792 61.8543 73.1663L60.5222 72.5099Z" fill="#2F2E41"/>
<path d="M93.6925 168.631C92.6136 161.615 92.6136 154.475 93.6925 147.459C93.7609 147.041 93.9752 146.661 94.2971 146.387C94.619 146.113 95.0276 145.962 95.4503 145.961H111.992C112.26 145.96 112.525 146.021 112.766 146.138C113.007 146.255 113.219 146.425 113.384 146.637C113.553 146.851 113.671 147.101 113.729 147.367C113.787 147.634 113.784 147.91 113.719 148.175C112.172 154.664 112.172 161.426 113.719 167.914C113.784 168.179 113.787 168.456 113.729 168.722C113.671 168.989 113.553 169.239 113.384 169.453C113.219 169.664 113.007 169.835 112.766 169.952C112.525 170.069 112.26 170.129 111.992 170.128H95.4503C95.0276 170.128 94.619 169.977 94.2971 169.702C93.9752 169.428 93.7609 169.048 93.6925 168.631Z" fill="#FF5300"/>
<path d="M106.901 156.21H98.2209C97.8909 156.21 97.5746 156.079 97.3412 155.845C97.1079 155.611 96.9767 155.295 96.9763 154.964V154.478C96.9767 154.147 97.1079 153.831 97.3412 153.597C97.5746 153.363 97.8909 153.232 98.2209 153.232H106.901C107.231 153.232 107.548 153.363 107.781 153.597C108.014 153.831 108.146 154.147 108.146 154.478V154.964C108.146 155.295 108.014 155.611 107.781 155.845C107.548 156.079 107.231 156.21 106.901 156.21Z" fill="white"/>
<path d="M106.901 161.338H98.2209C97.8909 161.337 97.5746 161.206 97.3412 160.972C97.1079 160.739 96.9767 160.422 96.9763 160.092V159.605C96.9767 159.274 97.1079 158.958 97.3412 158.724C97.5746 158.49 97.8909 158.359 98.2209 158.359H106.901C107.231 158.359 107.548 158.49 107.781 158.724C108.014 158.958 108.146 159.274 108.146 159.605V160.092C108.146 160.422 108.014 160.739 107.781 160.972C107.548 161.206 107.231 161.337 106.901 161.338Z" fill="white"/>
<path d="M98.0423 147.946C98.2888 147.342 98.4 146.691 98.3681 146.04C98.3363 145.388 98.1621 144.752 97.8579 144.175C97.5538 143.598 97.1269 143.095 96.6075 142.701C96.0882 142.307 95.4888 142.032 94.8518 141.896L74.0523 106.997L66.6892 113.307L89.4497 145.627C89.291 146.713 89.5359 147.821 90.1381 148.739C90.7403 149.657 91.6579 150.321 92.7171 150.607C93.7762 150.893 94.9033 150.78 95.8848 150.29C96.8663 149.799 97.6339 148.965 98.0423 147.946L98.0423 147.946Z" fill="#A0616A"/>
<path d="M78.185 112.655L69.4107 117.648C69.1611 117.79 68.8838 117.877 68.5977 117.902C68.3116 117.927 68.0235 117.89 67.753 117.794C67.4824 117.697 67.2358 117.543 67.03 117.343C66.8241 117.143 66.6638 116.9 66.56 116.632L62.9232 107.239C62.2045 105.956 62.0233 104.441 62.4192 103.024C62.8151 101.608 63.7559 100.406 65.0353 99.6831C66.3147 98.96 67.8282 98.7743 69.2442 99.1666C70.6601 99.559 71.8629 100.497 72.5888 101.776L78.7714 109.683C78.9483 109.909 79.0744 110.171 79.1411 110.451C79.2079 110.73 79.2136 111.021 79.1579 111.303C79.1023 111.585 78.9866 111.852 78.8187 112.085C78.6508 112.318 78.4347 112.513 78.185 112.655Z" fill="#2F2E41"/>
<path d="M171.547 124.913H3.11093C2.39574 124.913 1.70985 125.198 1.20413 125.704C0.698416 126.21 0.414307 126.897 0.414307 127.613C0.414307 128.329 0.698416 129.016 1.20413 129.522C1.70985 130.028 2.39574 130.313 3.11093 130.313H7.88189V189.083C7.88189 189.799 8.166 190.486 8.67172 190.992C9.17743 191.499 9.86333 191.783 10.5785 191.783C11.2937 191.783 11.9796 191.499 12.4853 190.992C12.9911 190.486 13.2752 189.799 13.2752 189.083V135.5L43.5069 190.358C43.8653 190.976 44.4541 191.427 45.1442 191.612C45.8343 191.796 46.5693 191.699 47.1878 191.341C47.8064 190.984 48.258 190.395 48.4436 189.704C48.6291 189.014 48.5335 188.278 48.1776 187.658L16.5748 130.313H160.967V130.348L129.384 187.658C129.027 188.278 128.93 189.015 129.115 189.706C129.3 190.398 129.752 190.988 130.371 191.346C130.99 191.704 131.726 191.801 132.417 191.615C133.108 191.43 133.697 190.978 134.055 190.358L160.967 141.523V189.083C160.967 189.799 161.252 190.486 161.757 190.992C162.263 191.499 162.949 191.783 163.664 191.783C164.379 191.783 165.065 191.499 165.571 190.992C166.077 190.486 166.361 189.799 166.361 189.083V131.736L167.145 130.313H171.547C172.262 130.313 172.948 130.028 173.453 129.522C173.959 129.016 174.243 128.329 174.243 127.613C174.243 126.897 173.959 126.21 173.453 125.704C172.948 125.198 172.262 124.913 171.547 124.913Z" fill="#3F3D56"/>
<path d="M101.849 123.252H69.0746C68.2727 123.252 67.6226 123.903 67.6226 124.706C67.6226 125.509 68.2727 126.159 69.0746 126.159H101.849C102.651 126.159 103.301 125.509 103.301 124.706C103.301 123.903 102.651 123.252 101.849 123.252Z" fill="#CCCCCC"/>
<path d="M123.837 126.159H86.9137C86.1987 126.159 85.5133 125.874 85.0078 125.368C84.5022 124.862 84.2179 124.175 84.217 123.46V103.108C84.2178 102.392 84.5022 101.706 85.0078 101.2C85.5133 100.694 86.1987 100.409 86.9137 100.408H123.837C124.552 100.409 125.237 100.694 125.743 101.2C126.248 101.706 126.533 102.392 126.533 103.108V123.46C126.533 124.175 126.248 124.862 125.743 125.368C125.237 125.874 124.552 126.159 123.837 126.159Z" fill="#CCCCCC"/>
<path d="M105.375 115.776C106.75 115.776 107.865 114.66 107.865 113.284C107.865 111.908 106.75 110.792 105.375 110.792C104.001 110.792 102.886 111.908 102.886 113.284C102.886 114.66 104.001 115.776 105.375 115.776Z" fill="white"/>
<path d="M152.015 76.0162V3.12395C152.016 2.29571 152.345 1.50167 152.93 0.916022C153.515 0.330372 154.308 0.00094209 155.135 0H212.689C213.516 0.00094209 214.309 0.330372 214.894 0.916022C215.479 1.50167 215.808 2.29571 215.809 3.12395V76.0162C215.808 76.8444 215.479 77.6384 214.894 78.2241C214.309 78.8097 213.516 79.1392 212.689 79.1401H155.135C154.308 79.1392 153.515 78.8097 152.93 78.2241C152.345 77.6384 152.016 76.8444 152.015 76.0162ZM155.135 0.694213C154.492 0.694936 153.875 0.951158 153.42 1.40667C152.965 1.86217 152.709 2.47976 152.708 3.12395V76.0162C152.709 76.6603 152.965 77.2779 153.42 77.7334C153.875 78.1889 154.492 78.4452 155.135 78.4459H212.689C213.333 78.4452 213.949 78.1889 214.404 77.7334C214.859 77.2779 215.115 76.6603 215.116 76.0162V3.12395C215.115 2.47976 214.859 1.86217 214.404 1.40667C213.949 0.951158 213.333 0.694936 212.689 0.694213H155.135Z" fill="#E6E6E6"/>
<path d="M187.139 33.4755V18.5084C187.14 18.0943 187.304 17.6972 187.597 17.4044C187.889 17.1116 188.286 16.9469 188.7 16.9464H201.368C201.782 16.9469 202.179 17.1116 202.471 17.4044C202.764 17.6972 202.928 18.0943 202.929 18.5084V33.4755C202.928 33.8896 202.764 34.2866 202.471 34.5794C202.179 34.8723 201.782 35.037 201.368 35.0374H188.7C188.286 35.037 187.889 34.8723 187.597 34.5794C187.304 34.2866 187.14 33.8896 187.139 33.4755Z" fill="#FF5300"/>
<path d="M162.523 40.4176V25.4505C162.524 25.0364 162.688 24.6394 162.981 24.3466C163.273 24.0537 163.67 23.889 164.083 23.8885H176.752C177.166 23.889 177.562 24.0537 177.855 24.3466C178.147 24.6394 178.312 25.0364 178.312 25.4505V40.4176C178.312 40.8317 178.147 41.2288 177.855 41.5216C177.562 41.8144 177.166 41.9791 176.752 41.9796H164.083C163.67 41.9791 163.273 41.8144 162.981 41.5216C162.688 41.2288 162.524 40.8317 162.523 40.4176Z" fill="#CCCCCC"/>
<path d="M182.286 61.591V46.6239C182.286 46.2098 182.451 45.8128 182.743 45.52C183.036 45.2271 183.432 45.0624 183.846 45.062H196.515C196.928 45.0624 197.325 45.2271 197.617 45.52C197.91 45.8128 198.074 46.2098 198.075 46.6239V61.591C198.074 62.0051 197.91 62.4021 197.617 62.695C197.325 62.9878 196.928 63.1525 196.515 63.153H183.846C183.432 63.1525 183.036 62.9878 182.743 62.695C182.451 62.4022 182.286 62.0051 182.286 61.591Z" fill="#FF6584"/>
<path d="M278.903 7.5954C280.385 7.5954 281.586 6.39285 281.586 4.90944C281.586 3.42602 280.385 2.22348 278.903 2.22348C277.421 2.22348 276.22 3.42602 276.22 4.90944C276.22 6.39285 277.421 7.5954 278.903 7.5954Z" fill="#F2F2F2"/>
<path d="M278.903 18.3001C280.385 18.3001 281.586 17.0975 281.586 15.6141C281.586 14.1307 280.385 12.9282 278.903 12.9282C277.421 12.9282 276.22 14.1307 276.22 15.6141C276.22 17.0975 277.421 18.3001 278.903 18.3001Z" fill="#F2F2F2"/>
<path d="M278.903 29.0048C280.385 29.0048 281.586 27.8022 281.586 26.3188C281.586 24.8354 280.385 23.6328 278.903 23.6328C277.421 23.6328 276.22 24.8354 276.22 26.3188C276.22 27.8022 277.421 29.0048 278.903 29.0048Z" fill="#F2F2F2"/>
<path d="M278.903 39.7094C280.385 39.7094 281.586 38.5069 281.586 37.0235C281.586 35.5401 280.385 34.3375 278.903 34.3375C277.421 34.3375 276.22 35.5401 276.22 37.0235C276.22 38.5069 277.421 39.7094 278.903 39.7094Z" fill="#F2F2F2"/>
<path d="M267.701 7.5954C269.183 7.5954 270.384 6.39285 270.384 4.90944C270.384 3.42602 269.183 2.22348 267.701 2.22348C266.22 2.22348 265.019 3.42602 265.019 4.90944C265.019 6.39285 266.22 7.5954 267.701 7.5954Z" fill="#F2F2F2"/>
<path d="M267.701 18.3001C269.183 18.3001 270.384 17.0975 270.384 15.6141C270.384 14.1307 269.183 12.9282 267.701 12.9282C266.22 12.9282 265.019 14.1307 265.019 15.6141C265.019 17.0975 266.22 18.3001 267.701 18.3001Z" fill="#F2F2F2"/>
<path d="M267.701 29.0048C269.183 29.0048 270.384 27.8022 270.384 26.3188C270.384 24.8354 269.183 23.6328 267.701 23.6328C266.22 23.6328 265.019 24.8354 265.019 26.3188C265.019 27.8022 266.22 29.0048 267.701 29.0048Z" fill="#F2F2F2"/>
<path d="M267.701 39.7094C269.183 39.7094 270.384 38.5069 270.384 37.0235C270.384 35.5401 269.183 34.3375 267.701 34.3375C266.22 34.3375 265.019 35.5401 265.019 37.0235C265.019 38.5069 266.22 39.7094 267.701 39.7094Z" fill="#F2F2F2"/>
<path d="M256.5 7.5954C257.982 7.5954 259.183 6.39285 259.183 4.90944C259.183 3.42602 257.982 2.22348 256.5 2.22348C255.018 2.22348 253.817 3.42602 253.817 4.90944C253.817 6.39285 255.018 7.5954 256.5 7.5954Z" fill="#F2F2F2"/>
<path d="M256.5 18.3001C257.982 18.3001 259.183 17.0975 259.183 15.6141C259.183 14.1307 257.982 12.9282 256.5 12.9282C255.018 12.9282 253.817 14.1307 253.817 15.6141C253.817 17.0975 255.018 18.3001 256.5 18.3001Z" fill="#F2F2F2"/>
<path d="M256.5 29.0048C257.982 29.0048 259.183 27.8022 259.183 26.3188C259.183 24.8354 257.982 23.6328 256.5 23.6328C255.018 23.6328 253.817 24.8354 253.817 26.3188C253.817 27.8022 255.018 29.0048 256.5 29.0048Z" fill="#F2F2F2"/>
<path d="M256.5 39.7094C257.982 39.7094 259.183 38.5069 259.183 37.0235C259.183 35.5401 257.982 34.3375 256.5 34.3375C255.018 34.3375 253.817 35.5401 253.817 37.0235C253.817 38.5069 255.018 39.7094 256.5 39.7094Z" fill="#F2F2F2"/>
<path d="M245.299 7.5954C246.78 7.5954 247.981 6.39285 247.981 4.90944C247.981 3.42602 246.78 2.22348 245.299 2.22348C243.817 2.22348 242.616 3.42602 242.616 4.90944C242.616 6.39285 243.817 7.5954 245.299 7.5954Z" fill="#F2F2F2"/>
<path d="M245.299 18.3001C246.78 18.3001 247.981 17.0975 247.981 15.6141C247.981 14.1307 246.78 12.9282 245.299 12.9282C243.817 12.9282 242.616 14.1307 242.616 15.6141C242.616 17.0975 243.817 18.3001 245.299 18.3001Z" fill="#F2F2F2"/>
<path d="M245.299 29.0048C246.78 29.0048 247.981 27.8022 247.981 26.3188C247.981 24.8354 246.78 23.6328 245.299 23.6328C243.817 23.6328 242.616 24.8354 242.616 26.3188C242.616 27.8022 243.817 29.0048 245.299 29.0048Z" fill="#F2F2F2"/>
<path d="M245.299 39.7094C246.78 39.7094 247.981 38.5069 247.981 37.0235C247.981 35.5401 246.78 34.3375 245.299 34.3375C243.817 34.3375 242.616 35.5401 242.616 37.0235C242.616 38.5069 243.817 39.7094 245.299 39.7094Z" fill="#F2F2F2"/>
<path d="M234.097 7.5954C235.579 7.5954 236.78 6.39285 236.78 4.90944C236.78 3.42602 235.579 2.22348 234.097 2.22348C232.616 2.22348 231.415 3.42602 231.415 4.90944C231.415 6.39285 232.616 7.5954 234.097 7.5954Z" fill="#F2F2F2"/>
<path d="M234.097 18.3001C235.579 18.3001 236.78 17.0975 236.78 15.6141C236.78 14.1307 235.579 12.9282 234.097 12.9282C232.616 12.9282 231.415 14.1307 231.415 15.6141C231.415 17.0975 232.616 18.3001 234.097 18.3001Z" fill="#F2F2F2"/>
<path d="M234.097 29.0048C235.579 29.0048 236.78 27.8022 236.78 26.3188C236.78 24.8354 235.579 23.6328 234.097 23.6328C232.616 23.6328 231.415 24.8354 231.415 26.3188C231.415 27.8022 232.616 29.0048 234.097 29.0048Z" fill="#F2F2F2"/>
<path d="M234.097 39.7094C235.579 39.7094 236.78 38.5069 236.78 37.0235C236.78 35.5401 235.579 34.3375 234.097 34.3375C232.616 34.3375 231.415 35.5401 231.415 37.0235C231.415 38.5069 232.616 39.7094 234.097 39.7094Z" fill="#F2F2F2"/>
<path d="M222.896 7.5954C224.378 7.5954 225.579 6.39285 225.579 4.90944C225.579 3.42602 224.378 2.22348 222.896 2.22348C221.414 2.22348 220.213 3.42602 220.213 4.90944C220.213 6.39285 221.414 7.5954 222.896 7.5954Z" fill="#F2F2F2"/>
<path d="M222.896 18.3001C224.378 18.3001 225.579 17.0975 225.579 15.6141C225.579 14.1307 224.378 12.9282 222.896 12.9282C221.414 12.9282 220.213 14.1307 220.213 15.6141C220.213 17.0975 221.414 18.3001 222.896 18.3001Z" fill="#F2F2F2"/>
<path d="M222.896 33.0048C224.378 33.0048 225.579 31.8022 225.579 30.3188C225.579 28.8354 224.378 27.6328 222.896 27.6328C221.414 27.6328 220.213 28.8354 220.213 30.3188C220.213 31.8022 221.414 33.0048 222.896 33.0048Z" fill="#F2F2F2"/>
<path d="M222.896 39.7094C224.378 39.7094 225.579 38.5069 225.579 37.0235C225.579 35.5401 224.378 34.3375 222.896 34.3375C221.414 34.3375 220.213 35.5401 220.213 37.0235C220.213 38.5069 221.414 39.7094 222.896 39.7094Z" fill="#F2F2F2"/>
<path d="M233.705 100.202C233.485 99.5969 233.395 98.9522 233.441 98.3101C233.487 97.668 233.668 97.0428 233.972 96.4757C234.277 95.9085 234.697 95.4121 235.206 95.0189C235.716 94.6258 236.302 94.3448 236.927 94.1944C237.126 94.1477 237.327 94.1149 237.529 94.0962L247.612 76.4033L245.066 72.0246L251.403 67.1299L256.252 73.8717C256.83 74.6822 257.132 75.6577 257.112 76.6534C257.093 77.6492 256.753 78.6121 256.144 79.3993L242.302 97.1401C242.352 97.281 242.395 97.4245 242.431 97.5698C242.581 98.1959 242.597 98.8467 242.478 99.4795C242.36 100.112 242.109 100.713 241.742 101.242C241.376 101.771 240.902 102.216 240.351 102.549C239.8 102.882 239.186 103.094 238.548 103.173C238.362 103.196 238.176 103.208 237.989 103.208C237.054 103.205 236.142 102.915 235.376 102.378C234.61 101.84 234.027 101.081 233.705 100.202Z" fill="#FFB8B8"/>
<path d="M214.034 187.272L208.948 187.271L206.528 167.631L214.035 167.631L214.034 187.272Z" fill="#FFB8B8"/>
<path d="M205.315 185.817H215.124V192H199.139C199.139 191.188 199.298 190.384 199.609 189.633C199.919 188.883 200.374 188.202 200.948 187.628C201.521 187.053 202.202 186.598 202.951 186.287C203.701 185.976 204.504 185.817 205.315 185.817Z" fill="#2F2E41"/>
<path d="M255.935 187.272L250.849 187.271L248.43 167.631L255.936 167.631L255.935 187.272Z" fill="#FFB8B8"/>
<path d="M247.216 185.817H257.025V192H241.04C241.04 191.188 241.2 190.384 241.51 189.633C241.821 188.883 242.275 188.202 242.849 187.628C243.422 187.053 244.103 186.598 244.853 186.287C245.602 185.976 246.405 185.817 247.216 185.817Z" fill="#2F2E41"/>
<path d="M252.814 68.0863L241.395 72.4305L238.607 64.6775C238.237 63.648 238.242 62.5207 238.622 61.4947C239.001 60.4687 239.731 59.6101 240.682 59.0706C241.644 58.5249 242.769 58.3416 243.854 58.5537C244.939 58.7658 245.913 59.3593 246.599 60.2271L252.814 68.0863Z" fill="#FF5300"/>
<path d="M214.473 171.365L204.896 169.178C204.387 169.061 203.941 168.755 203.647 168.322C203.354 167.889 203.235 167.361 203.315 166.844C207.157 142.459 210.855 128.179 220.382 110.045C220.515 109.707 222.003 102.844 222.974 98.2971C222.963 97.7961 223.134 97.3082 223.456 96.9243C223.777 96.5404 224.228 96.2867 224.722 96.2104L242.58 93.459C242.849 93.3655 243.134 93.3226 243.419 93.3327L243.597 93.3665L243.595 93.5424C243.593 93.7241 243.412 93.7519 243.344 93.7624L243.107 93.7989C243.377 93.9252 243.626 94.0944 243.843 94.3C251.667 103.721 255.736 134.605 260.903 168.723C260.932 169 260.898 169.279 260.805 169.542C260.711 169.804 260.56 170.042 260.363 170.238C260.176 170.442 259.949 170.606 259.697 170.721C259.445 170.835 259.172 170.897 258.895 170.902L247.486 171.181C246.984 171.192 246.496 171.021 246.112 170.698C245.728 170.376 245.473 169.925 245.397 169.429L237.712 124.967C237.659 124.62 237.496 124.298 237.248 124.05C237.001 123.801 236.68 123.638 236.333 123.585C235.986 123.531 235.631 123.59 235.32 123.752C235.009 123.914 234.757 124.172 234.602 124.487C228.403 137.128 222.621 148.06 216.926 169.87C216.814 170.312 216.557 170.704 216.197 170.984C215.837 171.264 215.394 171.417 214.938 171.417C214.782 171.417 214.626 171.4 214.473 171.365Z" fill="#2F2E41"/>
<path d="M223.769 98.8049C223.529 98.6347 223.327 98.4152 223.178 98.1611C223.029 97.907 222.936 97.624 222.905 97.3309C221.442 83.6622 222.461 72.9654 226.019 64.6292C226.645 63.1914 227.589 61.9145 228.78 60.8944C229.97 59.8744 231.376 59.1377 232.892 58.7398L242.122 58.2733L242.17 58.2965C244.253 59.3179 245.952 60.9841 247.014 63.0481C248.077 65.1121 248.447 67.464 248.069 69.755C245.1 77.5897 242.614 85.7468 244.51 92.3272C244.59 92.6023 244.613 92.8906 244.578 93.1749C244.544 93.4592 244.452 93.7336 244.309 93.9816C244.171 94.2214 243.984 94.4302 243.762 94.5951C243.54 94.7601 243.286 94.8777 243.017 94.9407L225.435 99.1278C225.151 99.1956 224.855 99.2019 224.567 99.1462C224.28 99.0905 224.008 98.9742 223.769 98.8049Z" fill="#FF5300"/>
<path d="M219.796 79.1894L202.092 65.2066C201.951 65.2562 201.807 65.2986 201.662 65.3335C201.037 65.4799 200.388 65.4929 199.758 65.3719C199.128 65.2509 198.53 64.9985 198.004 64.631C197.474 64.2633 197.028 63.7866 196.697 63.2326C196.366 62.6787 196.157 62.0604 196.084 61.419C195.965 60.3938 196.196 59.3584 196.739 58.481C197.282 57.6035 198.105 56.9355 199.075 56.5852C199.68 56.3679 200.325 56.281 200.966 56.3303C201.607 56.3796 202.23 56.5639 202.795 56.8712C203.36 57.1786 203.854 57.6019 204.245 58.1136C204.635 58.6253 204.913 59.2137 205.06 59.8404C205.106 60.039 205.137 60.2405 205.155 60.4436L222.779 70.6224L227.165 68.0945L232.023 74.4625L225.214 79.3217C224.417 79.8858 223.459 80.1776 222.483 80.1538C221.507 80.13 220.565 79.7918 219.796 79.1894H219.796Z" fill="#FFB8B8"/>
<path d="M234.184 76.4456L224.082 69.5687L228.829 62.8373C229.46 61.9435 230.385 61.3015 231.443 61.0249C232.5 60.7482 233.621 60.8547 234.608 61.3255C235.606 61.8017 236.401 62.6195 236.849 63.6312C237.298 64.643 237.37 65.7819 237.053 66.8423L234.184 76.4456Z" fill="#FF5300"/>
<path d="M239.042 54.8218C244.669 54.8218 249.231 50.2545 249.231 44.6206C249.231 38.9866 244.669 34.4194 239.042 34.4194C233.414 34.4194 228.852 38.9866 228.852 44.6206C228.852 50.2545 233.414 54.8218 239.042 54.8218Z" fill="#FFB8B8"/>
<path d="M235.306 43.1012C232.687 44.8957 229.248 46.7403 226.573 44.8293C224.817 43.5745 224.264 41.251 224.976 39.2119C226.257 35.545 229.776 33.9307 233.141 32.6933C237.515 31.0847 242.278 29.8049 246.794 30.957C251.31 32.109 255.301 36.4863 254.486 41.08C253.831 44.7741 250.35 47.8479 250.844 51.5672C251.341 55.3103 255.546 57.2805 259.258 57.9495C262.97 58.6185 267.124 58.8335 269.792 61.5028C273.195 64.9081 272.345 70.9947 269.143 74.59C265.941 78.1853 261.108 79.8151 256.426 80.923C250.222 82.3909 243.511 83.1623 237.619 80.7262C231.727 78.2901 227.141 71.7323 228.848 65.583C229.569 62.9855 231.268 60.7903 232.909 58.6532C234.551 56.5161 236.213 54.2814 236.839 51.6594C237.361 49.4744 236.975 46.9375 235.527 45.2985C235.264 45.0116 235.098 44.6486 235.054 44.2616C235.01 43.8746 235.089 43.4834 235.281 43.1444L235.306 43.1012Z" fill="#2F2E41"/>
</svg>
